<svg xmlns="http://www.w3.org/2000/svg" xmlns:xlink="http://www.w3.org/1999/xlink" width="187" zoomAndPan="magnify" viewBox="0 0 140.25 30.000001" height="40" preserveAspectRatio="xMidYMid meet" version="1.0"><defs><g/><clipPath id="8d15d7b34d"><path d="M 3.867188 6.875 L 16 6.875 L 16 14 L 3.867188 14 Z M 3.867188 6.875 " clip-rule="nonzero"/></clipPath><clipPath id="7b877bf5f2"><path d="M 3.867188 11 L 13 11 L 13 17 L 3.867188 17 Z M 3.867188 11 " clip-rule="nonzero"/></clipPath><clipPath id="5d7d2a620f"><path d="M 3.867188 14 L 13 14 L 13 20 L 3.867188 20 Z M 3.867188 14 " clip-rule="nonzero"/></clipPath><clipPath id="ac426e577d"><path d="M 12 17 L 24 17 L 24 23.566406 L 12 23.566406 Z M 12 17 " clip-rule="nonzero"/></clipPath></defs><g clip-path="url(#8d15d7b34d)"><path fill="#597cff" d="M 3.867188 13.070312 L 15.476562 8.816406 L 15.476562 6.875 L 3.867188 11.128906 Z M 3.867188 13.070312 " fill-opacity="1" fill-rule="nonzero"/></g><g clip-path="url(#7b877bf5f2)"><path fill="#597cff" d="M 3.867188 16.304688 L 12.535156 13.019531 L 12.535156 11.078125 L 3.867188 14.363281 Z M 3.867188 16.304688 " fill-opacity="1" fill-rule="nonzero"/><path fill="#597cff" d="M 12.535156 14.414062 L 12.535156 16.253906 L 12.402344 16.304688 L 9.84375 15.335938 L 8.136719 14.6875 L 5.578125 13.71875 L 3.867188 13.070312 L 3.867188 11.128906 L 6.429688 12.097656 L 8.136719 12.746094 L 10.695312 13.71875 L 12.402344 14.363281 Z M 12.535156 14.414062 " fill-opacity="1" fill-rule="nonzero"/></g><g clip-path="url(#5d7d2a620f)"><path fill="#597cff" d="M 12.535156 19.589844 L 3.867188 16.304688 L 3.867188 14.363281 L 12.535156 17.648438 Z M 12.535156 19.589844 " fill-opacity="1" fill-rule="nonzero"/></g><g clip-path="url(#ac426e577d)"><path fill="#597cff" d="M 23.824219 17.597656 L 12.214844 21.851562 L 12.214844 23.792969 L 23.824219 19.539062 Z M 23.824219 17.597656 " fill-opacity="1" fill-rule="nonzero"/></g><path fill="#597cff" d="M 23.824219 14.363281 L 15.15625 17.648438 L 15.15625 19.589844 L 23.824219 16.304688 Z M 23.824219 14.363281 " fill-opacity="1" fill-rule="nonzero"/><path fill="#597cff" d="M 15.15625 16.253906 L 15.15625 14.414062 L 15.289062 14.363281 L 17.847656 15.335938 L 19.554688 15.980469 L 22.113281 16.949219 L 23.824219 17.597656 L 23.824219 19.539062 L 21.261719 18.570312 L 19.554688 17.921875 L 16.996094 16.949219 L 15.289062 16.304688 Z M 15.15625 16.253906 " fill-opacity="1" fill-rule="nonzero"/><path fill="#597cff" d="M 15.15625 11.078125 L 23.824219 14.363281 L 23.824219 16.304688 L 15.15625 13.019531 Z M 15.15625 11.078125 " fill-opacity="1" fill-rule="nonzero"/><g fill="#597cff" fill-opacity="1"><g transform="translate(32.291254, 18.753484)"><g><path d="M 0.953125 0 L 0.953125 -10.609375 L 4.21875 -10.609375 C 5.144531 -10.609375 5.972656 -10.394531 6.703125 -9.96875 C 7.441406 -9.550781 8.019531 -8.957031 8.4375 -8.1875 C 8.851562 -7.414062 9.0625 -6.535156 9.0625 -5.546875 L 9.0625 -5.0625 C 9.0625 -4.070312 8.859375 -3.191406 8.453125 -2.421875 C 8.046875 -1.660156 7.472656 -1.066406 6.734375 -0.640625 C 5.992188 -0.210938 5.160156 0 4.234375 0 Z M 3.140625 -8.84375 L 3.140625 -1.75 L 4.1875 -1.75 C 5.039062 -1.75 5.691406 -2.03125 6.140625 -2.59375 C 6.597656 -3.15625 6.832031 -3.953125 6.84375 -4.984375 L 6.84375 -5.546875 C 6.84375 -6.628906 6.617188 -7.445312 6.171875 -8 C 5.722656 -8.5625 5.070312 -8.84375 4.21875 -8.84375 Z M 3.140625 -8.84375 "/></g></g></g><g fill="#597cff" fill-opacity="1"><g transform="translate(41.68829, 18.753484)"><g><path d="M 3.03125 0 L 0.921875 0 L 0.921875 -7.890625 L 3.03125 -7.890625 Z M 0.796875 -9.921875 C 0.796875 -10.234375 0.898438 -10.492188 1.109375 -10.703125 C 1.316406 -10.910156 1.601562 -11.015625 1.96875 -11.015625 C 2.332031 -11.015625 2.617188 -10.910156 2.828125 -10.703125 C 3.046875 -10.492188 3.15625 -10.234375 3.15625 -9.921875 C 3.15625 -9.597656 3.046875 -9.332031 2.828125 -9.125 C 2.609375 -8.925781 2.320312 -8.828125 1.96875 -8.828125 C 1.613281 -8.828125 1.328125 -8.925781 1.109375 -9.125 C 0.898438 -9.332031 0.796875 -9.597656 0.796875 -9.921875 Z M 0.796875 -9.921875 "/></g></g></g><g fill="#597cff" fill-opacity="1"><g transform="translate(45.345134, 18.753484)"><g><path d="M 3.03125 0 L 0.921875 0 L 0.921875 -11.1875 L 3.03125 -11.1875 Z M 3.03125 0 "/></g></g></g><g fill="#597cff" fill-opacity="1"><g transform="translate(49.001978, 18.753484)"><g><path d="M 2.75 -7.890625 L 2.8125 -6.96875 C 3.375 -7.675781 4.128906 -8.03125 5.078125 -8.03125 C 5.910156 -8.03125 6.53125 -7.785156 6.9375 -7.296875 C 7.351562 -6.804688 7.5625 -6.070312 7.5625 -5.09375 L 7.5625 0 L 5.46875 0 L 5.46875 -5.046875 C 5.46875 -5.492188 5.367188 -5.816406 5.171875 -6.015625 C 4.972656 -6.210938 4.648438 -6.3125 4.203125 -6.3125 C 3.609375 -6.3125 3.164062 -6.0625 2.875 -5.5625 L 2.875 0 L 0.765625 0 L 0.765625 -7.890625 Z M 2.75 -7.890625 "/></g></g></g><g fill="#597cff" fill-opacity="1"><g transform="translate(57.058665, 18.753484)"><g><path d="M 5.375 0 C 5.28125 -0.1875 5.210938 -0.421875 5.171875 -0.703125 C 4.660156 -0.140625 3.992188 0.140625 3.171875 0.140625 C 2.398438 0.140625 1.757812 -0.078125 1.25 -0.515625 C 0.75 -0.960938 0.5 -1.53125 0.5 -2.21875 C 0.5 -3.050781 0.804688 -3.691406 1.421875 -4.140625 C 2.046875 -4.585938 2.941406 -4.8125 4.109375 -4.8125 L 5.078125 -4.8125 L 5.078125 -5.265625 C 5.078125 -5.628906 4.984375 -5.921875 4.796875 -6.140625 C 4.609375 -6.359375 4.3125 -6.46875 3.90625 -6.46875 C 3.550781 -6.46875 3.273438 -6.378906 3.078125 -6.203125 C 2.878906 -6.035156 2.78125 -5.804688 2.78125 -5.515625 L 0.671875 -5.515625 C 0.671875 -5.972656 0.8125 -6.394531 1.09375 -6.78125 C 1.375 -7.164062 1.769531 -7.46875 2.28125 -7.6875 C 2.800781 -7.914062 3.378906 -8.03125 4.015625 -8.03125 C 4.992188 -8.03125 5.765625 -7.785156 6.328125 -7.296875 C 6.898438 -6.804688 7.1875 -6.117188 7.1875 -5.234375 L 7.1875 -1.828125 C 7.195312 -1.078125 7.300781 -0.507812 7.5 -0.125 L 7.5 0 Z M 3.640625 -1.46875 C 3.953125 -1.46875 4.238281 -1.535156 4.5 -1.671875 C 4.757812 -1.804688 4.953125 -1.992188 5.078125 -2.234375 L 5.078125 -3.578125 L 4.296875 -3.578125 C 3.234375 -3.578125 2.671875 -3.210938 2.609375 -2.484375 L 2.59375 -2.375 C 2.59375 -2.101562 2.6875 -1.882812 2.875 -1.71875 C 3.0625 -1.550781 3.316406 -1.46875 3.640625 -1.46875 Z M 3.640625 -1.46875 "/></g></g></g><g fill="#597cff" fill-opacity="1"><g transform="translate(64.75841, 18.753484)"><g><path d="M 7.671875 -2.859375 L 8.703125 -7.890625 L 10.734375 -7.890625 L 8.71875 0 L 6.953125 0 L 5.46875 -4.96875 L 3.96875 0 L 2.21875 0 L 0.203125 -7.890625 L 2.234375 -7.890625 L 3.265625 -2.875 L 4.703125 -7.890625 L 6.234375 -7.890625 Z M 7.671875 -2.859375 "/></g></g></g><g fill="#597cff" fill-opacity="1"><g transform="translate(75.42295, 18.753484)"><g><path d="M 5.375 0 C 5.28125 -0.1875 5.210938 -0.421875 5.171875 -0.703125 C 4.660156 -0.140625 3.992188 0.140625 3.171875 0.140625 C 2.398438 0.140625 1.757812 -0.078125 1.25 -0.515625 C 0.75 -0.960938 0.5 -1.53125 0.5 -2.21875 C 0.5 -3.050781 0.804688 -3.691406 1.421875 -4.140625 C 2.046875 -4.585938 2.941406 -4.8125 4.109375 -4.8125 L 5.078125 -4.8125 L 5.078125 -5.265625 C 5.078125 -5.628906 4.984375 -5.921875 4.796875 -6.140625 C 4.609375 -6.359375 4.3125 -6.46875 3.90625 -6.46875 C 3.550781 -6.46875 3.273438 -6.378906 3.078125 -6.203125 C 2.878906 -6.035156 2.78125 -5.804688 2.78125 -5.515625 L 0.671875 -5.515625 C 0.671875 -5.972656 0.8125 -6.394531 1.09375 -6.78125 C 1.375 -7.164062 1.769531 -7.46875 2.28125 -7.6875 C 2.800781 -7.914062 3.378906 -8.03125 4.015625 -8.03125 C 4.992188 -8.03125 5.765625 -7.785156 6.328125 -7.296875 C 6.898438 -6.804688 7.1875 -6.117188 7.1875 -5.234375 L 7.1875 -1.828125 C 7.195312 -1.078125 7.300781 -0.507812 7.5 -0.125 L 7.5 0 Z M 3.640625 -1.46875 C 3.953125 -1.46875 4.238281 -1.535156 4.5 -1.671875 C 4.757812 -1.804688 4.953125 -1.992188 5.078125 -2.234375 L 5.078125 -3.578125 L 4.296875 -3.578125 C 3.234375 -3.578125 2.671875 -3.210938 2.609375 -2.484375 L 2.59375 -2.375 C 2.59375 -2.101562 2.6875 -1.882812 2.875 -1.71875 C 3.0625 -1.550781 3.316406 -1.46875 3.640625 -1.46875 Z M 3.640625 -1.46875 "/></g></g></g><g fill="#597cff" fill-opacity="1"><g transform="translate(83.122695, 18.753484)"><g><path d="M 3.234375 -1.703125 L 7.078125 -1.703125 L 7.078125 0 L 0.546875 0 L 0.546875 -1.28125 L 4.25 -6.171875 L 0.65625 -6.171875 L 0.65625 -7.890625 L 6.96875 -7.890625 L 6.96875 -6.640625 Z M 3.234375 -1.703125 "/></g></g></g></svg>